<?xml version="1.0" standalone="no"?>
<!DOCTYPE svg PUBLIC "-//W3C//DTD SVG 20010904//EN"
 "http://www.w3.org/TR/2001/REC-SVG-20010904/DTD/svg10.dtd">
<svg version="1.0" xmlns="http://www.w3.org/2000/svg"
 width="32.000000pt" height="32.000000pt" viewBox="0 0 32.000000 32.000000"
 preserveAspectRatio="xMidYMid meet">

<g transform="translate(0.000000,32.000000) scale(0.100000,-0.100000)"
fill="#000000" stroke="none">
<path d="M0 160 l0 -160 52 0 c40 0 49 3 40 12 -15 15 -17 228 -2 228 15 0 30
-35 30 -69 0 -29 3 -31 35 -31 l35 0 0 51 c0 43 3 50 18 47 12 -2 18 -16 22
-48 5 -45 5 -45 48 -48 l42 -3 0 90 0 91 -160 0 -160 0 0 -160z"/>
<path d="M310 121 c0 -6 -17 -11 -37 -13 l-38 -3 -3 -52 -3 -53 45 0 46 0 0
65 c0 36 -2 65 -5 65 -3 0 -5 -4 -5 -9z"/>
<path d="M120 56 l0 -56 46 0 c36 0 44 3 36 13 -6 7 -12 30 -14 52 -3 37 -5
40 -35 43 l-33 3 0 -55z"/>
</g>
</svg>
